<svg height="600" viewBox="0 0 537 600" width="537" xmlns="http://www.w3.org/2000/svg"><g fill="none" fill-rule="evenodd"><path d="m165.421 202.950897.229026.646495.333335.918387.208264.561077.578358 1.510743.600742 1.501891.258724.627524.426555 1.011084.42484.979684.2578.581957.380956.843573.292633.635308.296493.632959.275116.578045.608024 1.247461.324012.648721.489681.960437.568423 1.086381.580186 1.079169.549932.996888.334917.595307.361972.63377.365929.630872.722205 1.217419.361711.596519.846758 1.363835.737517 1.152627.710232 1.080808.391542.584158.771011 1.127141.581438.830505.425247.597217.525084.72595.660338.895553.454691.605772.333988.439473.745399.964559.633556.802749 1.052882 1.300808.727192.875306.662814.782081.699998.810082.478054.544182.551551.618959.643058.709936.528428.574186 1.067185 1.135105.583075.606689 1.206284 1.226339c5.973482 5.978407 12.636342 11.266524 19.859969 15.734305l1.106433.67526.869261.517951.83785.488958.658535.377333.966924.543066.984331.539633 1.158988.618597c.643021.338226 1.289837.670214 1.940367.995882l.861676.426609.865939.419204.55135.261994.916002.426908 1.004099.456105 1.044872.461627.996383.428018 1.110001.462999.606578.246925 1.350939.53466 1.063014.406054 1.218108.449641c5.184841 1.878589 10.553225 3.374945 16.071471 4.455012l1.184763.225059.898637.161632 1.027435.175266 1.106895.177502 1.134887.169873 1.171932.162616 1.229931.156754.81855.096467 1.089312.118683 1.209296.118849.481454.043551 1.254907.103471 1.02042.073472 1.157911.071831 1.46044.07317 1.099125.042294.729551.022035 1.101933.02417 1.157386.016006h.730583l1.079653-.005232 1.326273-.020771.630791-.015444.977852-.031049 1.189889-.049465.840695-.042702 1.111606-.066353.485695-.032536 1.208152-.090314.714352-.059712.713049-.064297 1.052939-.103548 1.501576-.165489 1.201895-.14764.610435-.080178.609436-.083549 1.165515-.169569.820553-.127124.47998-.077336 1.249521-.211691 1.136026-.205517 1.131889-.217219.841887-.169676.871718-.183019 1.095236-.240595.961729-.2211.933042-.223356 1.142316-.285409 1.377871-.361925.659329-.180075.95745-.269499.826879-.240427 1.258874-.379818 1.3025-.410673 1.37097-.451931 1.037039-.355415 1.135064-.402556.693446-.252971 1.168914-.43863.708538-.273406.761525-.300252.922964-.372877 1.359034-.567151.974774-.420255.747074-.329798 1.107203-.501235.765635-.356116.800054-.378467.929673-.450721.924235-.458987.910359-.462886.844594-.439149.82395-.437537 1.612927-.883049.865918-.488841 1.471362-.85485 1.064433-.637808 1.05676-.649668.44565-.278991 1.196845-.76416.967057-.633652 1.121783-.753586.604795-.41473.772703-.538608.767988-.545204.636706-.459634 1.305398-.964369.716706-.542343.94926-.732729 1.131705-.895539 1.076931-.875067.624567-.517992.673826-.56767.878439-.754113 1.045029-.918445.979013-.882073.630113-.579133 1.12193-1.053964.508529-.487601.965025-.942793.71469-.713386 1.157876-1.184167.9756-1.026075.903283-.974102.957562-1.058983.874641-.991968.726709-.842851.965465-1.147076.674698-.820866.377951-.467.684027-.858694.598435-.765959.628676-.820003.566188-.75243.734562-.996653.589791-.817634.292752-.411808.613169-.875784.496589-.722855.71721-1.066399.4125-.625815.665818-1.030247.561614-.889176.330469-.532218.666752-1.095.525638-.88415.848997-1.469477.496757-.884991.510361-.929823c4.546037-8.378658 8.030212-17.41898 10.272603-26.939006.865826-3.662018 4.142015-6.221091 7.8649-6.448637l.266653-.012272.274411-.004244 34.82939-.000164 21.84969-51.779451.168799-.412542c1.47716-3.725832 1.808715-7.769107 1.010693-11.627968h45.904529c18.218143 0 33.860175 9.031282 42.970507 24.810756 9.012167 15.609113 9.108041 33.455939.287623 49.115105l-.287623.50437-218.462627 378.388371c-9.110332 15.776953-24.752364 24.809107-42.971768 24.809107-18.033493 0-33.541943-8.848765-42.690845-24.328248l-.280924-.480859-218.46262715-378.388371c-9.1090718-15.779475-9.1090718-33.842522 0-49.619475 9.01612205-15.618459 24.43379375-24.625361 42.41484085-24.810756h.556928 46.3874273l14.104377 63.819151 43.49008.000974.268142.004054c2.244976.067902 4.347141.985366 5.88151 2.487281l.215287.218507.229981.252266.24093.287745.207574.270959.210667.300887c.092391.138433.180733.279914.264832.424321.176118.302415.333628.617665.470745.944635.170827.407358.31.832909.414064 1.274498l.151948.636591.155555.634771.223532.884573.160824.617836.29243 1.087158c.159195.579847.323019 1.157708.491394 1.733417l.219662.741282.224742.739082.392607 1.248055.245424.754592.296693.885365z" fill="#002a64" fill-rule="nonzero"/><path d="m298.59951 567.128406 218.462627-378.388371c6.501436-11.262767 6.501436-23.763783 0-35.025289-6.502697-11.262767-17.329177-17.513275-30.332049-17.513275h-436.9265153c-13.0041331 0-23.830613 6.250508-30.33331 17.513275-6.5014361 11.261506-6.5014361 23.762522 0 35.025289l218.4638883 378.388371c6.501436 11.260245 17.327916 17.510753 30.332049 17.510753 13.005394 0 23.830613-6.250508 30.33331-17.510753" fill="#fff" fill-rule="nonzero"/><path d="m486.727566 149.286897c8.326024 0 14.837548 3.758287 19.001191 10.969635 4.088053 7.082575 4.163487 14.459497.219133 21.552584l-.219133.386611-100.028932 173.251961 6.562031-28.315122 4.489528-7.774948-2.666528-.089052 2.128-9.181 6.005988-.200911 8.336112-14.44035-11.2531 1.314261 2.343-10.111 15.664986-2.899794 10.545289-18.26732-22.739275 6.194114 2.724-11.755 29.014645-10.024403 14.50718-25.130648-39.402825 17.387051 3.368-14.535 49.286104-25.802524 13.775832-23.858354c2.051558-3.558389 2.514325-6.937723 1.380735-10.41415l-59.222671 37.557028 2.318201-10.001479.02591-.266131c.190438-2.316724-.547819-4.489238-1.895445-6.161429l42.22031-30.907884h-34.567566l-30.26141 26.261254 14.659-34.738zm-384.41971 0 5.757 26.047-20.2538578-17.570254h-34.5890017l42.4280712 31.04554c-1.2676938 1.639744-1.9594625 3.736403-1.7891818 5.969932l.0302209.319972 2.2787496 10.168479-59.4258984-37.669808c-1.1096323 3.460035-.6430823 6.820456 1.4009107 10.35993l13.8224868 23.941576 49.2205005 25.755302 3.246 14.479-39.2240486-17.29896 14.5008756 25.116778 28.696173 9.908182 2.634 11.752-22.3358472-6.079937 10.5415061 18.258494 15.1523411 2.801443 2.272 10.136-10.673238-1.244694 8.336112 14.436568 5.334126.176126 2.067 9.226-1.936187.065054 3.190187 5.526946 6.211845 27.710654-98.3970583-170.428493c-4.1623818-7.211349-4.1623818-14.726585 0-21.939195 4.089292-7.082574 10.440928-10.833664 18.5555678-10.969635z" fill="#caccd1"/><path d="m411.951021 76.2993764c4.478221.0052254 8.458036 2.910862 10.459101 6.9159689l16.685466 33.4058947c2.663128 5.323281 2.863979 11.543694.550479 17.026167l-21.849939 51.778969-34.829141.000646-.274411.004244c-3.832163.118583-7.245112 2.711701-8.131553 6.460909-7.877992 33.445844-31.082862 60.970885-61.812895 74.684891l74.386703-176.2940163c1.643998-3.8898038 4.708827-7.0052176 8.577058-8.7064953l8.108408-3.5729065c2.588739-1.1396404 5.363451-1.7042715 8.130724-1.7042715z" fill="#feaa36"/><path d="m429.276232 113.432181c1.452412-3.444915 6.213131-3.661724 8.001156-.448786l.099813.189168 1.718387 3.449421c2.59655 5.190199 2.852397 11.232527.719278 16.612881l-.168799.412542-21.84969 51.779451h-18.9z" fill="#f17018"/><path d="m385.23791 151.250834c-2.432522-1.024337-3.563236-3.821366-2.544106-6.249425l2.678006-6.338691c1.026569-2.426571 3.823598-3.564724 6.248681-2.540387 2.425083 1.024338 3.563236 3.82211 2.536667 6.249425l-2.670567 6.338692c-1.026569 2.428059-3.823598 3.564723-6.248681 2.540386" fill="#fb8f29"/><path d="m355.2859 37.6218035c3.741769-2.5039357 8.666325-3.0633414 12.579189-.8420841 2.273516 1.2894878 4.292046 3.0176822 5.933 5.1104166l.32312.4233854 5.311379 7.1584591c2.44492 3.296328 3.589958 7.375366 3.206649 11.4522723l-.045114.4217092-18.816064 158.415042c-15.046044 27.099356-41.261484 47.123398-72.450088 53.805596l23.810154-200.4493135c.690261-5.8040073 3.821867-11.0303242 8.604584-14.3715966l.34442-.2354388z" fill="#fec24d"/><path d="m366.749253 45.3404122c.47609-3.9946924 5.564302-5.4036212 8.011702-2.2100989l.459235.6066074c1.168573 1.5576483 2.501012 3.4297429 4.227276 5.7506815 2.437729 3.2884179 3.568625 7.3678874 3.1911 11.4374398l-.044443.42092-18.816349 158.415555c-5.557541 10.009534-12.638928 19.053771-20.931914 26.816924z" fill="#f88727"/><path d="m334.067165 195.723101c-1.97131-.234326-3.384703-2.027102-3.154096-4.00362l.617429-5.160369c.230606-1.977261 2.023382-3.389165 4.002131-3.154096 1.978749.23507 3.392141 2.027102 3.154096 4.00362l-.60999 5.161856c-.238045 1.975774-2.030821 3.386934-4.00957 3.152609" fill="#fda134"/><path d="m347.413377 106.03011c-2.648251-.103401-4.708828-2.332841-4.612122-4.979603l.27524-6.9129755c.096706-2.6475066 2.328377-4.7095713 4.976628-4.6061705 2.64825.1034008 4.708827 2.332097 4.604682 4.9796036l-.2678 6.9129754c-.104145 2.646762-2.335817 4.709571-4.976628 4.60617" fill="#fda134" transform="matrix(.9945219 .10452846 -.10452846 .9945219 12.12577 -35.812007)"/><path d="m274.267444 5.83586608.261523.26283016 6.226365 6.37886176c2.880825 2.9486947 4.556317 6.8581531 4.713598 10.9665906l.010107.3740213 4.15703 250.0968411c-6.8747 1.358686-13.982938 2.071019-21.259473 2.071019-15.8459 0-30.893878-3.377868-44.470084-9.45228l-4.280387-257.78382772c-.074389-4.46036793 3.480664-8.1359313 7.941032-8.21032036l31.887483-.52983556.267931-.01227219c5.438469-.08298847 10.677802 2.02232665 14.544875 5.83837191z" fill="#feaa36"/><path d="m267.628638 10.0881814c-.066206-4.02221634 4.78768-6.10213441 7.636781-3.2671674l.814358.82037443c1.30519 1.33016691 2.803576 2.91846337 4.690432 4.84881567 2.865179 2.9350083 4.532082 6.8307269 4.697321 10.9185696l.011507.4093962 4.15703 250.0968411c-5.715394 1.129566-11.592201 1.812391-17.592934 2.010565z" fill="#f17018"/><path d="m241.191511 100.779602c-2.648994.044633-4.831569-2.0665283-4.876203-4.7162666l-.114559-6.9166946c-.043889-2.6482505 2.067272-4.8315693 4.716266-4.8754589 2.648251-.0438895 4.83157 2.067272 4.876203 4.7162663l.114559 6.9166946c.043146 2.6489944-2.067272 4.8315692-4.716266 4.8754592" fill="#fb8f29"/><path d="m265.74701 62.19829 32.134585 1.2519679c5.433377.2116616 10.553827 2.605273 14.200047 6.6293885l.246308.2768916 5.861858 6.7143564c2.707543 3.1046492 4.167705 7.0999845 4.101618 11.2112982l-.01022.3740537-6.885775 176.6964167c-14.231515 6.816076-30.174236 10.633367-47.018837 10.633367-6.475917 0-12.818565-.564172-18.981948-1.64601l7.966485-204.3851829c.173327-4.4581363 3.927743-7.9306175 8.385879-7.7565471z" fill="#fec24d"/><path d="m305.216356 73.9569684c.156217-4.0207286 5.117967-5.8268949 7.810851-2.8379425l.505413.5683729c1.287878 1.4602347 2.768581 3.2204368 4.672066 5.3976295 2.689412 3.0856334 4.141503 7.0624162 4.087491 11.1481946l-.010971.4230234-6.885775 176.6964167c-5.708101 2.733851-11.691487 4.985282-17.897937 6.701477z" fill="#f88727"/><path d="m288.821008 170.191484c-2.648251-.103401-4.708828-2.332841-4.612122-4.979603l.27524-6.912975c.096706-2.647507 2.328377-4.709572 4.976628-4.606171 2.64825.103401 4.708827 2.332097 4.604682 4.979604l-.2678 6.912975c-.104145 2.646762-2.335817 4.709571-4.976628 4.60617" fill="#fda134"/><path d="m269.09303 214.570886c-2.645275-.096706-4.708084-2.328378-4.604683-4.976628l.466419-11.961761c.103401-2.64825 2.332841-4.708827 4.97886-4.604683 2.64825.096706 4.708827 2.328378 4.604683 4.976628l-.461212 11.961761c-.104145 2.64825-2.335817 4.708827-4.984067 4.604683" fill="#fda134"/><path d="m208.923981 52.053328.269235.2546809 6.42052 6.1847063c2.967467 2.8584433 4.764638 6.7140906 5.052112 10.81604l.021966.3735621 9.443852 199.4076467c-33.756402-12.649465-59.550003-41.563053-67.942477-77.197789-.27988-1.187647-.813709-2.259286-1.534306-3.173009l-6.256647-132.0750189c-.211265-4.4559046 3.229973-8.2393321 7.686621-8.4498532l32.122684-1.5212562c5.434104-.2582127 10.737348 1.6847267 14.71644 5.3802903z" fill="#fec24d"/><path d="m209.95496 53.007266c1.540598 1.4394283 3.311801 3.2255096 5.671422 5.4980953 2.950444 2.8418604 4.737944 6.6784438 5.035932 10.7544745l.0255.4224815 9.443911 199.4076687c-6.31908-2.367931-12.359124-5.305799-18.058218-8.751001l-9.653414-203.8317138c-.190436-4.0184969 4.595012-6.2457053 7.534867-3.5000052z" fill="#f88727"/><path d="m188.23038 136.797613c-2.646019.124974-4.892569-1.918493-5.017542-4.564512l-.328056-6.91c-.125718-2.646019 1.918494-4.893312 4.564513-5.018286 2.646018-.125717 4.892568 1.91775 5.017542 4.563769l.328055 6.910743c.124974 2.646763-1.91775 4.892569-4.564512 5.018286" fill="#fda134"/><path d="m132.053863 61.4220094c2.570607.4644667 5.04968 1.4264828 7.290113 2.8584658l.444861.2926547 7.383858 4.996713c3.398439 2.3003825 5.822314 5.7734398 6.814696 9.7458745l.097535.4126953 36.073052 163.1710343c-13.52176-13.928569-23.364273-31.456338-27.968789-51.007272-.884013-3.751237-4.301531-6.345133-8.13559-6.461099l-.268142-.004054-43.49008-.000974-15.9701568-72.264217c-1.2678127-5.694278-.0471259-11.65162 3.3428302-16.3827441l.2650391-.361489 22.5302145-30.0383017c2.701066-3.6019182 7.16069-5.7592009 11.590559-4.9572868z" fill="#feaa36"/><path d="m140.659933 65.1325356.675817.4474981c1.611588 1.0778263 3.477975 2.393792 5.851823 4.0002237 3.392686 2.2960679 5.810113 5.7703716 6.800056 9.7361747l.097297.4119806 36.409385 163.5159693c-13.694889-13.983643-23.662515-31.639536-28.305122-51.352207-.338772-1.437552-1.04961-2.705139-2.013373-3.72844l-26.341823-118.2948481c-.874815-3.9262544 3.459835-6.9397552 6.82594-4.7363513z" fill="#f17018"/><path d="m127.664445 135.458856c-2.646019.124973-4.892569-1.918494-5.017542-4.564513l-.328056-6.91c-.125718-2.646018 1.918494-4.893312 4.564512-5.018285 2.646019-.125718 4.892569 1.917749 5.017542 4.563768l.328056 6.910744c.124974 2.646762-1.91775 4.892568-4.564512 5.018286" fill="#fb8f29" transform="matrix(.98480775 -.17364818 .17364818 .98480775 -20.15663 24.033519)"/><g fill-rule="nonzero"><path d="m153.785457 185.427022c3.941876 0 7.499161 2.626678 8.403732 6.465153 11.350282 48.193695 54.528667 84.093855 106.187405 84.093855 51.65725 0 94.832659-35.90016 106.184429-84.093855.886441-3.749208 4.29939-6.342326 8.131553-6.460909l.274411-.004244h51.254061c5.095522 0 9.084616 4.361054 8.669919 9.405934l-.02591.266131-37.165232 160.348601-118.434956 205.135149c-4.086702 7.082709-10.434253 10.83249-18.546194 10.970228h-.452475c-8.175881 0-14.600211-3.621004-18.769373-10.577788l-.229296-.389918-120.06683-207.961139-35.3095942-157.525133c-.5709616-5.067741 3.3168414-9.51617 8.3759332-9.668058l.267332-.004007z" fill="#b31c31"/><path d="m153.361697 185.427022c3.941876 0 7.499161 2.626678 8.403731 6.465153 11.350283 48.193695 54.528668 84.093855 106.187405 84.093855 51.65725 0 94.83266-35.90016 106.18443-84.093855.886441-3.749208 4.29939-6.342326 8.131553-6.460909l.27441-.004244h12.184928c3.892847 0 6.939533 4.352712 6.626606 9.391453l-.020857.280612-40.697825 238.402191-73.371209 127.081559c-4.086702 7.082709-10.434253 10.83249-18.546194 10.970228h-.452475c-8.175881 0-14.600211-3.621004-18.769373-10.577788l-.229296-.389918-73.20028-126.787759-41.496231-238.698513c-.435297-5.062892 2.529827-9.507656 6.392481-9.66761l.215499-.004455z" fill="#a21629"/><path d="m515.000508 333.883993v122.291068c0 9.769807-9.74711 16.41373-18.83979 12.841471-119.184588-46.808827-337.135079-46.808827-456.3196672 0-9.0926795 3.572259-18.8410508-3.071664-18.8410508-12.841471v-122.291068c0-9.849247 8.0334851-17.883993 17.8852539-17.883993h458.2312611c9.849247 0 17.883993 8.034746 17.883993 17.883993z" fill="#002a64"/><path d="m69.5 340.2c17.6.1 24.2 10.5 24.2 20.2 0 4.3-.1 8.6-.1 12.9l-15.6 1.2c0-3.9 0-7.9.1-11.8 0-3.8-2-8.2-8.7-8-6.4.2-8.4 4.9-8.5 8.9l.0015656 6.009858c.0435861 5.369916 1.0691661 6.999898 11.8984344 11.390142 2.6 1 5.2 2.1 7.7 3 8.2 3.1 13 6.6 13 15.2v7.5c-.099 9.702-6.86268 21.07017-23.8811463 25.177759l-.5188537.122241c-17.5 4.2-24.1-5.7-24.1-16.9v-6.9l7.7-1.35c2.575-.45 5.15-.9 7.7-1.35v5c0 4 2 8.2 8.7 6.9 6.4-1.2 8.5-6 8.5-9.9v-3c0-3.9-1-4.6-11.5-8.5-1.3-.4-2.7-.9-4.1-1.5l-2.14235-.862679c-9.7717667-3.962499-14.65765-6.607651-14.65765-18.937321v-11.8c0-11.1 6.8-22.9 24.3-22.7zm389.5 1.8 1 9.633333c.666667 6.444445 1.333333 12.933334 2 19.466667l.096777.880933c.502442 4.307739 1.334473 7.137817 4.803223 7.419067 3.8.4 4.4-2.8 4.9-7.6l.773761-8.444315c.648688-7.069971 1.311953-14.212828 2.026239-21.355685 5.2 0 10.4 0 15.6.1l-.940525 10.004082c-.779883 8.316326-1.545189 16.581632-2.259475 24.795918l-.043731.509778c-.578722 6.270222-2.906936 14.932889-12.056269 16.490222 0 12.8.1 25.6.1 38.4-5.2-1.2-10.4-2.4-15.7-3.5l-.096296-12.37037c-.05926-8.22963-.103704-16.42963-.103704-24.62963-9.358209-3.940299-11.632702-12.344308-12.272046-18.138452l-.027954-.261548c-1.1-10.6-2.3-21.1-3.4-31.5 5.2 0 10.4 0 15.6.1zm-71.3-.3c7.125 0 14.30625.05625 21.459375.084375l7.140625.015625c12.5 0 17.6 7.4 17.7 15.9 0 4.8.1 9.6.1 14.4l-.004536.496802c-.101173 5.492471-1.939582 11.835551-9.995464 12.903198 5.1 1.5 6.7 7.5 8.1 15.1 1.5 7.8 3 15.6 4.4 23.5-5.2-.9-10.4-1.9-15.7-2.8-1.285714-6.342857-2.571429-12.612245-3.920117-18.808163l-.803543-3.65225c-1.085942-4.802001-2.587451-8.158106-8.07634-8.639587-1.3-.1-2.7-.3-4-.4.1 9.6.2 19.3.2 28.9-5.3-.8-10.6-1.6-15.9-2.3-.2-24.9-.4-49.8-.7-74.7zm-258.6-1.601448c17.523.100441 24.2649 9.118358 24.300956 17.643278l-.000956.25817c-.2 19.2-.3 38.4-.5 57.6-5.4.7-10.7 1.4-15.9 2.2.2-19.3.3-38.6.5-57.8 0-3.4-2-7.2-8.5-7.1-6.385965.098246-8.524962 4.057371-8.598049 7.51526l-.001951.18474c-.2 19.9-.3 39.9-.5 59.8-5.3.9-10.5 1.8-15.8 2.7.08-16.88.16-33.76.2912-50.64l.1088-12.66c0-9.6 6.9-19.8 24.6-19.701448zm59.9-.098552c16.4.1 18.1 9 18.7 14.6l1.65 13.914063c1.65 13.879687 3.3 27.660937 4.95 41.385937-5.1.3-10.3.6-15.4 1-.7-5.5-1.3-10.9-2-16.4-5.6.3-11.1.7-16.7 1.1-.7 5.7-1.5 11.4-2.2 17.1-5.1.5-10.3 1.1-15.4 1.6 2.222222-17.688889 4.365432-35.219753 6.570096-52.592593l.945566-7.41632c.810588-5.897837 3.304338-14.291087 18.884338-14.291087zm151.2 1.6c12.7 0 25.4 0 38.1.1 0 3.9.1 7.9.1 11.8-7.4-.2-14.8-.3-22.2-.4.1 7.2.1 14.4.2 21.7 6.8.3 13.5.7 20.3 1.1 0 3.9.1 7.9.1 11.8-6.8-.5-13.5-1-20.3-1.4.1 8.9.1 17.7.2 26.6-5.4-.7-10.7-1.2-16-1.6-.2-23.2-.3-46.5-.5-69.7zm-41.5-.1c0 10.5.1 21 .1 31.5h1.6c9 .2 10.9-4.1 11.2-7.8.7-7.9 1.3-15.8 2-23.7h15.9l-1.8 25.3c-.4 4.9-2.5 10.3-10.1 12 6.778947 1.964912 8.731794 7.501139 9.462029 12.341391l2.062971 14.574234c.225 1.590625.45 3.184375.675 4.784375-5.4-.4-10.7-.7-16.1-1l-1.62-10.5984c-.18-1.1728-.36-2.3432-.54-3.5104l-.54-3.4912c-.7-4.4-2.1-8.1-10.6-8.3h-1.6c0 8.4.1 16.9.1 25.3-5.3-.2-10.7-.3-16-.4 0-22.3-.1-44.7-.1-67zm-50.3-1.5c17.7 0 24.4 8.3 24.4 16.2v10.4c-5.3.1-10.5.1-15.7.1v-9.2c0-3-2.1-6.4-8.8-6.4-6.5 0-8.6 3.5-8.6 6.5 0 11.7-.1 23.4-.1 35 0 2.947368 2.026962 6.280825 8.261945 6.207224l.338055-.007224c6.680702-.098246 8.824869-3.478239 8.898047-6.346836l.001953-3.853164c5.2 0 10.5-.1 15.7 0v4.9c0 7.821-6.66468 15.93603-24.069296 16.388638l-.530704.011362c-17.8.5-24.6-7.5-24.5-15.6.1-12.6.1-25.2.2-37.8 0-8 6.8-16.5 24.5-16.5zm-59.312475 11.696065-.187525.003935c-2.7 0-3.4 1.8-4 6.3l-1.32 10.6016c-.66 5.3184-1.32 10.6584-1.98 15.9984 4.7-.3 9.4-.5 14.1-.8-1-8.6-2-17.3-2.9-26l-.068999-.58395c-.478423-3.8811-1.126557-5.532285-3.643476-5.519985zm214.712475 2.403935c.1 7.9.1 15.7.2 23.6 1.5.075 3 .20625 4.5.309375l1.5.090625c5.7.4 8.4-1.3 8.4-7.6-.142857-2.714286-.183673-5.479592-.195335-8.223032l-.004665-3.276968c0-2.7-.8-4.5-5.6-4.7-2.9-.1-5.9-.2-8.8-.2z" fill="#fff"/></g></g></svg>